<?xml version="1.0" encoding="utf-8"?>
<!-- Generator: Adobe Illustrator 23.0.1, SVG Export Plug-In . SVG Version: 6.00 Build 0)  -->
<svg version="1.1" id="Layer_1" xmlns="http://www.w3.org/2000/svg" xmlns:xlink="http://www.w3.org/1999/xlink" x="0px" y="0px"
	 width="127.5px" height="14.6px" viewBox="0 0 127.5 14.6" style="enable-background:new 0 0 127.5 14.6;" xml:space="preserve">
<style type="text/css">
	.st0{enable-background:new    ;}
	.st1{fill:#717171;}
</style>
<g class="st0">
	<path class="st1" d="M13.1,5.6c0,3.2-2.5,5.3-6.4,5.3h-2v3.4H0v-14h6.7C10.6,0.3,13.1,2.4,13.1,5.6z M8.4,5.6c0-1-0.6-1.6-1.9-1.6
		H4.7v3.3h1.7C7.7,7.2,8.4,6.6,8.4,5.6z"/>
	<path class="st1" d="M27.5,10.8v3.6H15.8v-14h11.4v3.6h-6.7v1.6h5.9v3.4h-5.9v1.8H27.5z"/>
	<path class="st1" d="M30.5,0.3h6.9c4.7,0,7.9,2.7,7.9,7c0,4.3-3.2,7-7.9,7h-6.9V0.3z M37.2,10.6c2,0,3.3-1.2,3.3-3.3
		c0-2.1-1.4-3.3-3.3-3.3h-2v6.6H37.2z"/>
	<path class="st1" d="M56.7,11.9h-5.3l-0.9,2.4h-4.8l6.1-14h4.6l6.1,14h-4.9L56.7,11.9z M55.4,8.5L54.1,5l-1.4,3.5H55.4z"/>
	<path class="st1" d="M72.7,6.9h4.1v5.9c-1.7,1.2-4,1.8-6.1,1.8c-4.5,0-7.8-3-7.8-7.3C62.9,3,66.2,0,70.8,0c2.8,0,5,1,6.4,2.7
		l-3,2.7c-0.9-1-1.9-1.5-3.1-1.5c-2.1,0-3.4,1.3-3.4,3.5c0,2.1,1.3,3.5,3.3,3.5c0.6,0,1.1-0.1,1.7-0.3V6.9z"/>
	<path class="st1" d="M79.1,7.3C79.1,3.1,82.4,0,87,0s7.9,3.1,7.9,7.3c0,4.2-3.3,7.3-7.9,7.3S79.1,11.6,79.1,7.3z M90.1,7.3
		c0-2.2-1.4-3.5-3.1-3.5c-1.7,0-3.1,1.3-3.1,3.5c0,2.2,1.4,3.5,3.1,3.5C88.7,10.8,90.1,9.5,90.1,7.3z"/>
	<path class="st1" d="M106.6,6.9h4.1v5.9c-1.7,1.2-4,1.8-6.1,1.8c-4.5,0-7.8-3-7.8-7.3c0-4.3,3.3-7.3,7.9-7.3c2.8,0,5,1,6.4,2.7
		l-3,2.7c-0.9-1-1.9-1.5-3.1-1.5c-2.1,0-3.4,1.3-3.4,3.5c0,2.1,1.3,3.5,3.3,3.5c0.6,0,1.1-0.1,1.7-0.3V6.9z"/>
	<path class="st1" d="M122.3,9.2v5.1h-4.7V9.2l-5.3-8.9h5l2.9,4.8l2.9-4.8h4.6L122.3,9.2z"/>
</g>
</svg>
